<mxfile host="app.diagrams.net" modified="2023-10-11T07:19:58.086Z" agent="Mozilla/5.0 (Windows NT 10.0; Win64; x64) AppleWebKit/537.36 (KHTML, like Gecko) Chrome/117.0.0.0 Safari/537.36 Edg/117.0.2045.60" etag="NjQwidk7bDonCOCIk1d6" version="21.8.2" type="device">
  <diagram name="Page-1" id="T7by6Z1_HSRz-lhqUT0l">
    <mxGraphModel dx="222" dy="127" grid="1" gridSize="1" guides="1" tooltips="1" connect="1" arrows="1" fold="1" page="1" pageScale="1" pageWidth="1169" pageHeight="827" math="0" shadow="0">
      <root>
        <mxCell id="0" />
        <mxCell id="1" parent="0" />
        <mxCell id="3PGzeI4wrHqtgNAeovKl-1" value="&lt;font face=&quot;Times New Roman&quot;&gt;External power supply&lt;br&gt;5.45V - 37V&lt;/font&gt;" style="rounded=0;whiteSpace=wrap;html=1;" vertex="1" parent="1">
          <mxGeometry x="120" y="220" width="120" height="60" as="geometry" />
        </mxCell>
        <mxCell id="3PGzeI4wrHqtgNAeovKl-2" value="&lt;font face=&quot;Times New Roman&quot;&gt;Voltage regulator:&lt;br&gt;LM317&lt;br&gt;&lt;/font&gt;" style="rounded=0;whiteSpace=wrap;html=1;" vertex="1" parent="1">
          <mxGeometry x="130" y="384" width="100" height="60" as="geometry" />
        </mxCell>
        <mxCell id="3PGzeI4wrHqtgNAeovKl-4" value="&lt;font face=&quot;Times New Roman&quot;&gt;Microcontroller unit:&lt;br&gt;STM32F103C8T6 Blue Pill&lt;br&gt;&lt;/font&gt;" style="rounded=0;whiteSpace=wrap;html=1;" vertex="1" parent="1">
          <mxGeometry x="330" y="384" width="170" height="60" as="geometry" />
        </mxCell>
        <mxCell id="3PGzeI4wrHqtgNAeovKl-5" value="&lt;font face=&quot;Times New Roman&quot;&gt;LoRa module:&lt;br&gt;SX1278&lt;br&gt;&lt;/font&gt;" style="rounded=0;whiteSpace=wrap;html=1;" vertex="1" parent="1">
          <mxGeometry x="280" y="220" width="120" height="60" as="geometry" />
        </mxCell>
        <mxCell id="3PGzeI4wrHqtgNAeovKl-6" value="&lt;font face=&quot;Times New Roman&quot;&gt;RTC module:&lt;br&gt;DS3231SN&lt;br&gt;&lt;/font&gt;" style="rounded=0;whiteSpace=wrap;html=1;" vertex="1" parent="1">
          <mxGeometry x="440" y="220" width="120" height="60" as="geometry" />
        </mxCell>
        <mxCell id="3PGzeI4wrHqtgNAeovKl-15" style="edgeStyle=orthogonalEdgeStyle;rounded=0;orthogonalLoop=1;jettySize=auto;html=1;exitX=0;exitY=0.5;exitDx=0;exitDy=0;entryX=1;entryY=0.5;entryDx=0;entryDy=0;" edge="1" parent="1" source="3PGzeI4wrHqtgNAeovKl-7" target="3PGzeI4wrHqtgNAeovKl-10">
          <mxGeometry relative="1" as="geometry" />
        </mxCell>
        <mxCell id="3PGzeI4wrHqtgNAeovKl-7" value="&lt;font face=&quot;Times New Roman&quot;&gt;Anemometer&lt;/font&gt;" style="rounded=0;whiteSpace=wrap;html=1;" vertex="1" parent="1">
          <mxGeometry x="830" y="220" width="120" height="60" as="geometry" />
        </mxCell>
        <mxCell id="3PGzeI4wrHqtgNAeovKl-22" style="edgeStyle=orthogonalEdgeStyle;rounded=0;orthogonalLoop=1;jettySize=auto;html=1;exitX=0;exitY=0.5;exitDx=0;exitDy=0;entryX=1;entryY=0.75;entryDx=0;entryDy=0;" edge="1" parent="1" source="3PGzeI4wrHqtgNAeovKl-8" target="3PGzeI4wrHqtgNAeovKl-4">
          <mxGeometry relative="1" as="geometry">
            <Array as="points">
              <mxPoint x="630" y="474" />
              <mxPoint x="630" y="429" />
            </Array>
          </mxGeometry>
        </mxCell>
        <mxCell id="3PGzeI4wrHqtgNAeovKl-8" value="&lt;font face=&quot;Times New Roman&quot;&gt;Rain gauge&lt;/font&gt;" style="rounded=0;whiteSpace=wrap;html=1;" vertex="1" parent="1">
          <mxGeometry x="680" y="444" width="120" height="60" as="geometry" />
        </mxCell>
        <mxCell id="3PGzeI4wrHqtgNAeovKl-16" style="edgeStyle=orthogonalEdgeStyle;rounded=0;orthogonalLoop=1;jettySize=auto;html=1;exitX=0.5;exitY=1;exitDx=0;exitDy=0;entryX=0.5;entryY=0;entryDx=0;entryDy=0;" edge="1" parent="1" source="3PGzeI4wrHqtgNAeovKl-10" target="3PGzeI4wrHqtgNAeovKl-14">
          <mxGeometry relative="1" as="geometry" />
        </mxCell>
        <mxCell id="3PGzeI4wrHqtgNAeovKl-18" value="&lt;font style=&quot;font-size: 11px;&quot; face=&quot;Times New Roman&quot;&gt;Wind vane&lt;/font&gt;" style="edgeLabel;html=1;align=center;verticalAlign=middle;resizable=0;points=[];" vertex="1" connectable="0" parent="3PGzeI4wrHqtgNAeovKl-16">
          <mxGeometry x="-0.0983" y="1" relative="1" as="geometry">
            <mxPoint as="offset" />
          </mxGeometry>
        </mxCell>
        <mxCell id="3PGzeI4wrHqtgNAeovKl-19" style="edgeStyle=orthogonalEdgeStyle;rounded=0;orthogonalLoop=1;jettySize=auto;html=1;exitX=0;exitY=0.5;exitDx=0;exitDy=0;entryX=1;entryY=0.25;entryDx=0;entryDy=0;" edge="1" parent="1" source="3PGzeI4wrHqtgNAeovKl-10" target="3PGzeI4wrHqtgNAeovKl-4">
          <mxGeometry relative="1" as="geometry">
            <Array as="points">
              <mxPoint x="630" y="250" />
              <mxPoint x="630" y="399" />
            </Array>
          </mxGeometry>
        </mxCell>
        <mxCell id="3PGzeI4wrHqtgNAeovKl-21" value="Anemometer" style="edgeLabel;html=1;align=center;verticalAlign=middle;resizable=0;points=[];" vertex="1" connectable="0" parent="3PGzeI4wrHqtgNAeovKl-19">
          <mxGeometry x="-0.2094" y="2" relative="1" as="geometry">
            <mxPoint as="offset" />
          </mxGeometry>
        </mxCell>
        <mxCell id="3PGzeI4wrHqtgNAeovKl-10" value="&lt;font face=&quot;Times New Roman&quot;&gt;Wind vane&lt;/font&gt;" style="rounded=0;whiteSpace=wrap;html=1;" vertex="1" parent="1">
          <mxGeometry x="690" y="220" width="100" height="60" as="geometry" />
        </mxCell>
        <mxCell id="3PGzeI4wrHqtgNAeovKl-11" value="&lt;font face=&quot;Times New Roman&quot;&gt;Temperature sensor:&lt;br&gt;DS18B20&lt;/font&gt;" style="rounded=0;whiteSpace=wrap;html=1;" vertex="1" parent="1">
          <mxGeometry x="280" y="520" width="120" height="60" as="geometry" />
        </mxCell>
        <mxCell id="3PGzeI4wrHqtgNAeovKl-12" value="&lt;font face=&quot;Times New Roman&quot;&gt;Compound sensor:&lt;br&gt;BME280&lt;/font&gt;" style="rounded=0;whiteSpace=wrap;html=1;" vertex="1" parent="1">
          <mxGeometry x="440" y="520" width="120" height="60" as="geometry" />
        </mxCell>
        <mxCell id="3PGzeI4wrHqtgNAeovKl-17" style="edgeStyle=orthogonalEdgeStyle;rounded=0;orthogonalLoop=1;jettySize=auto;html=1;exitX=0.5;exitY=1;exitDx=0;exitDy=0;entryX=1;entryY=0.5;entryDx=0;entryDy=0;" edge="1" parent="1" source="3PGzeI4wrHqtgNAeovKl-14" target="3PGzeI4wrHqtgNAeovKl-4">
          <mxGeometry relative="1" as="geometry" />
        </mxCell>
        <mxCell id="3PGzeI4wrHqtgNAeovKl-14" value="&lt;font face=&quot;Times New Roman&quot;&gt;Active Low-pass Filter:&lt;br&gt;f&lt;sub&gt;c&lt;/sub&gt; = 11.587 kHz&lt;br&gt;&lt;/font&gt;" style="rounded=0;whiteSpace=wrap;html=1;" vertex="1" parent="1">
          <mxGeometry x="680" y="320" width="120" height="60" as="geometry" />
        </mxCell>
        <mxCell id="3PGzeI4wrHqtgNAeovKl-25" value="" style="endArrow=classic;startArrow=classic;html=1;rounded=0;exitX=0.5;exitY=0;exitDx=0;exitDy=0;entryX=0.25;entryY=1;entryDx=0;entryDy=0;" edge="1" parent="1" source="3PGzeI4wrHqtgNAeovKl-11" target="3PGzeI4wrHqtgNAeovKl-4">
          <mxGeometry width="50" height="50" relative="1" as="geometry">
            <mxPoint x="470" y="450" as="sourcePoint" />
            <mxPoint x="380" y="450" as="targetPoint" />
            <Array as="points">
              <mxPoint x="340" y="480" />
              <mxPoint x="372" y="480" />
            </Array>
          </mxGeometry>
        </mxCell>
        <mxCell id="3PGzeI4wrHqtgNAeovKl-26" value="" style="endArrow=classic;startArrow=classic;html=1;rounded=0;exitX=0.5;exitY=0;exitDx=0;exitDy=0;" edge="1" parent="1" source="3PGzeI4wrHqtgNAeovKl-12">
          <mxGeometry width="50" height="50" relative="1" as="geometry">
            <mxPoint x="510" y="534" as="sourcePoint" />
            <mxPoint x="450" y="444" as="targetPoint" />
            <Array as="points">
              <mxPoint x="500" y="480" />
              <mxPoint x="450" y="480" />
            </Array>
          </mxGeometry>
        </mxCell>
        <mxCell id="3PGzeI4wrHqtgNAeovKl-27" value="" style="endArrow=classic;startArrow=classic;html=1;rounded=0;entryX=0.5;entryY=1;entryDx=0;entryDy=0;exitX=0.7;exitY=0.011;exitDx=0;exitDy=0;exitPerimeter=0;" edge="1" parent="1" source="3PGzeI4wrHqtgNAeovKl-4" target="3PGzeI4wrHqtgNAeovKl-6">
          <mxGeometry width="50" height="50" relative="1" as="geometry">
            <mxPoint x="420" y="350" as="sourcePoint" />
            <mxPoint x="470" y="300" as="targetPoint" />
            <Array as="points">
              <mxPoint x="449" y="340" />
              <mxPoint x="500" y="340" />
            </Array>
          </mxGeometry>
        </mxCell>
        <mxCell id="3PGzeI4wrHqtgNAeovKl-28" value="" style="endArrow=classic;startArrow=classic;html=1;rounded=0;entryX=0.25;entryY=0;entryDx=0;entryDy=0;exitX=0.5;exitY=1;exitDx=0;exitDy=0;" edge="1" parent="1" source="3PGzeI4wrHqtgNAeovKl-5" target="3PGzeI4wrHqtgNAeovKl-4">
          <mxGeometry width="50" height="50" relative="1" as="geometry">
            <mxPoint x="340" y="360" as="sourcePoint" />
            <mxPoint x="390" y="310" as="targetPoint" />
            <Array as="points">
              <mxPoint x="340" y="340" />
              <mxPoint x="377" y="340" />
            </Array>
          </mxGeometry>
        </mxCell>
        <mxCell id="3PGzeI4wrHqtgNAeovKl-29" value="" style="endArrow=block;dashed=1;endFill=0;endSize=12;html=1;rounded=0;exitX=1;exitY=0.5;exitDx=0;exitDy=0;entryX=0;entryY=0.5;entryDx=0;entryDy=0;" edge="1" parent="1" source="3PGzeI4wrHqtgNAeovKl-2" target="3PGzeI4wrHqtgNAeovKl-4">
          <mxGeometry width="160" relative="1" as="geometry">
            <mxPoint x="310" y="400" as="sourcePoint" />
            <mxPoint x="470" y="400" as="targetPoint" />
          </mxGeometry>
        </mxCell>
        <mxCell id="3PGzeI4wrHqtgNAeovKl-39" value="&lt;font face=&quot;Times New Roman&quot;&gt;+3.3V&lt;/font&gt;" style="edgeLabel;html=1;align=center;verticalAlign=middle;resizable=0;points=[];" vertex="1" connectable="0" parent="3PGzeI4wrHqtgNAeovKl-29">
          <mxGeometry x="-0.2299" relative="1" as="geometry">
            <mxPoint x="-17" as="offset" />
          </mxGeometry>
        </mxCell>
        <mxCell id="3PGzeI4wrHqtgNAeovKl-31" value="" style="endArrow=block;dashed=1;endFill=0;endSize=12;html=1;rounded=0;entryX=0.5;entryY=0;entryDx=0;entryDy=0;" edge="1" parent="1">
          <mxGeometry width="160" relative="1" as="geometry">
            <mxPoint x="889.71" y="180" as="sourcePoint" />
            <mxPoint x="889.71" y="220" as="targetPoint" />
          </mxGeometry>
        </mxCell>
        <mxCell id="3PGzeI4wrHqtgNAeovKl-33" value="" style="endArrow=block;dashed=1;endFill=0;endSize=12;html=1;rounded=0;entryX=0.5;entryY=0;entryDx=0;entryDy=0;" edge="1" parent="1" target="3PGzeI4wrHqtgNAeovKl-10">
          <mxGeometry width="160" relative="1" as="geometry">
            <mxPoint x="740" y="180" as="sourcePoint" />
            <mxPoint x="710" y="320" as="targetPoint" />
          </mxGeometry>
        </mxCell>
        <mxCell id="3PGzeI4wrHqtgNAeovKl-34" value="" style="endArrow=block;dashed=1;endFill=0;endSize=12;html=1;rounded=0;exitX=0.5;exitY=1;exitDx=0;exitDy=0;entryX=0.5;entryY=0;entryDx=0;entryDy=0;" edge="1" parent="1" source="3PGzeI4wrHqtgNAeovKl-2" target="3PGzeI4wrHqtgNAeovKl-6">
          <mxGeometry width="160" relative="1" as="geometry">
            <mxPoint x="340" y="400" as="sourcePoint" />
            <mxPoint x="910" y="180" as="targetPoint" />
            <Array as="points">
              <mxPoint x="180" y="620" />
              <mxPoint x="840" y="620" />
              <mxPoint x="990" y="620" />
              <mxPoint x="990" y="480" />
              <mxPoint x="990" y="350" />
              <mxPoint x="990" y="300" />
              <mxPoint x="990" y="180" />
              <mxPoint x="500" y="180" />
            </Array>
          </mxGeometry>
        </mxCell>
        <mxCell id="3PGzeI4wrHqtgNAeovKl-40" value="&lt;font face=&quot;Times New Roman&quot;&gt;+3.3V&lt;/font&gt;" style="edgeLabel;html=1;align=center;verticalAlign=middle;resizable=0;points=[];" vertex="1" connectable="0" parent="3PGzeI4wrHqtgNAeovKl-34">
          <mxGeometry x="-0.9766" y="-1" relative="1" as="geometry">
            <mxPoint x="1" y="-7" as="offset" />
          </mxGeometry>
        </mxCell>
        <mxCell id="3PGzeI4wrHqtgNAeovKl-35" value="" style="endArrow=block;dashed=1;endFill=0;endSize=12;html=1;rounded=0;entryX=1;entryY=0.5;entryDx=0;entryDy=0;" edge="1" parent="1" target="3PGzeI4wrHqtgNAeovKl-8">
          <mxGeometry width="160" relative="1" as="geometry">
            <mxPoint x="990" y="474" as="sourcePoint" />
            <mxPoint x="550" y="380" as="targetPoint" />
          </mxGeometry>
        </mxCell>
        <mxCell id="3PGzeI4wrHqtgNAeovKl-36" value="" style="endArrow=block;dashed=1;endFill=0;endSize=12;html=1;rounded=0;entryX=0.5;entryY=1;entryDx=0;entryDy=0;" edge="1" parent="1" target="3PGzeI4wrHqtgNAeovKl-11">
          <mxGeometry width="160" relative="1" as="geometry">
            <mxPoint x="340" y="620" as="sourcePoint" />
            <mxPoint x="550" y="380" as="targetPoint" />
          </mxGeometry>
        </mxCell>
        <mxCell id="3PGzeI4wrHqtgNAeovKl-37" value="" style="endArrow=block;dashed=1;endFill=0;endSize=12;html=1;rounded=0;entryX=0.5;entryY=1;entryDx=0;entryDy=0;" edge="1" parent="1" target="3PGzeI4wrHqtgNAeovKl-12">
          <mxGeometry width="160" relative="1" as="geometry">
            <mxPoint x="500" y="620" as="sourcePoint" />
            <mxPoint x="550" y="380" as="targetPoint" />
          </mxGeometry>
        </mxCell>
        <mxCell id="3PGzeI4wrHqtgNAeovKl-38" value="" style="endArrow=block;dashed=1;endFill=0;endSize=12;html=1;rounded=0;exitX=0.5;exitY=1;exitDx=0;exitDy=0;entryX=0.5;entryY=0;entryDx=0;entryDy=0;" edge="1" parent="1" source="3PGzeI4wrHqtgNAeovKl-1" target="3PGzeI4wrHqtgNAeovKl-2">
          <mxGeometry width="160" relative="1" as="geometry">
            <mxPoint x="250" y="380" as="sourcePoint" />
            <mxPoint x="410" y="380" as="targetPoint" />
          </mxGeometry>
        </mxCell>
        <mxCell id="3PGzeI4wrHqtgNAeovKl-41" value="" style="endArrow=block;dashed=1;endFill=0;endSize=12;html=1;rounded=0;exitX=1;exitY=0.25;exitDx=0;exitDy=0;entryX=0.167;entryY=0.991;entryDx=0;entryDy=0;entryPerimeter=0;" edge="1" parent="1" source="3PGzeI4wrHqtgNAeovKl-2" target="3PGzeI4wrHqtgNAeovKl-5">
          <mxGeometry width="160" relative="1" as="geometry">
            <mxPoint x="510" y="400" as="sourcePoint" />
            <mxPoint x="280" y="400" as="targetPoint" />
            <Array as="points">
              <mxPoint x="300" y="400" />
            </Array>
          </mxGeometry>
        </mxCell>
        <mxCell id="3PGzeI4wrHqtgNAeovKl-42" value="&lt;font face=&quot;Times New Roman&quot;&gt;+3.3V&lt;/font&gt;" style="edgeLabel;html=1;align=center;verticalAlign=middle;resizable=0;points=[];" vertex="1" connectable="0" parent="3PGzeI4wrHqtgNAeovKl-41">
          <mxGeometry x="-0.8079" y="1" relative="1" as="geometry">
            <mxPoint x="4" as="offset" />
          </mxGeometry>
        </mxCell>
        <mxCell id="3PGzeI4wrHqtgNAeovKl-43" value="" style="endArrow=block;dashed=1;endFill=0;endSize=12;html=1;rounded=0;exitX=0;exitY=0.5;exitDx=0;exitDy=0;" edge="1" parent="1" source="3PGzeI4wrHqtgNAeovKl-46">
          <mxGeometry width="160" relative="1" as="geometry">
            <mxPoint x="790" y="650" as="sourcePoint" />
            <mxPoint x="730" y="645" as="targetPoint" />
          </mxGeometry>
        </mxCell>
        <mxCell id="3PGzeI4wrHqtgNAeovKl-44" value="" style="endArrow=classic;startArrow=classic;html=1;rounded=0;entryX=0;entryY=0.5;entryDx=0;entryDy=0;" edge="1" parent="1" target="3PGzeI4wrHqtgNAeovKl-47">
          <mxGeometry width="50" height="50" relative="1" as="geometry">
            <mxPoint x="730" y="665" as="sourcePoint" />
            <mxPoint x="790" y="690" as="targetPoint" />
          </mxGeometry>
        </mxCell>
        <mxCell id="3PGzeI4wrHqtgNAeovKl-45" value="" style="endArrow=classic;html=1;rounded=0;exitX=0;exitY=0.5;exitDx=0;exitDy=0;" edge="1" parent="1" source="3PGzeI4wrHqtgNAeovKl-48">
          <mxGeometry width="50" height="50" relative="1" as="geometry">
            <mxPoint x="730" y="730" as="sourcePoint" />
            <mxPoint x="730" y="685" as="targetPoint" />
          </mxGeometry>
        </mxCell>
        <mxCell id="3PGzeI4wrHqtgNAeovKl-46" value="&lt;font face=&quot;Times New Roman&quot;&gt;&amp;nbsp; &amp;nbsp;Power line&lt;/font&gt;" style="text;html=1;strokeColor=none;fillColor=none;align=left;verticalAlign=middle;whiteSpace=wrap;rounded=0;" vertex="1" parent="1">
          <mxGeometry x="810" y="630" width="180" height="30" as="geometry" />
        </mxCell>
        <mxCell id="3PGzeI4wrHqtgNAeovKl-47" value="&lt;font face=&quot;Times New Roman&quot;&gt;&amp;nbsp; &amp;nbsp;Bi-directional communication line&lt;/font&gt;" style="text;html=1;strokeColor=none;fillColor=none;align=left;verticalAlign=middle;whiteSpace=wrap;rounded=0;" vertex="1" parent="1">
          <mxGeometry x="810" y="650" width="200" height="30" as="geometry" />
        </mxCell>
        <mxCell id="3PGzeI4wrHqtgNAeovKl-48" value="&lt;font face=&quot;Times New Roman&quot;&gt;&amp;nbsp; &amp;nbsp;Directional communication line&lt;/font&gt;" style="text;html=1;strokeColor=none;fillColor=none;align=left;verticalAlign=middle;whiteSpace=wrap;rounded=0;" vertex="1" parent="1">
          <mxGeometry x="810" y="670" width="200" height="30" as="geometry" />
        </mxCell>
      </root>
    </mxGraphModel>
  </diagram>
</mxfile>
